<?xml version="1.0" encoding="utf-8"?>
<!-- Generator: Adobe Illustrator 25.0.1, SVG Export Plug-In . SVG Version: 6.00 Build 0)  -->
<svg version="1.1" xmlns="http://www.w3.org/2000/svg" xmlns:xlink="http://www.w3.org/1999/xlink" x="0px" y="0px" width="1000px"
	 height="775px" viewBox="0 0 1000 775" style="enable-background:new 0 0 1000 775;" xml:space="preserve">
<style type="text/css">
	.st0{fill:#FFFFFF;}
	.st1{fill:none;stroke:#E74C3C;stroke-width:2;stroke-linecap:round;stroke-linejoin:round;stroke-miterlimit:10;}
	.st2{fill:#E74C3C;}
	.st3{opacity:0.98;}
	.st4{fill:none;stroke:#E74C3C;stroke-width:2.5;stroke-linecap:round;stroke-linejoin:round;}
	.st5{fill:none;stroke:#E74C3C;stroke-width:2.5;stroke-linecap:round;stroke-linejoin:round;stroke-dasharray:3.0856,6.1712;}
	.st6{fill:none;stroke:#E74C3C;stroke-width:2.5;stroke-linecap:round;stroke-linejoin:round;stroke-dasharray:3.0872,6.1744;}
	.st7{fill:none;stroke:#E74C3C;stroke-width:2.5;stroke-linecap:round;stroke-linejoin:round;stroke-dasharray:2.9032,5.8063;}
	.st8{fill:none;stroke:#E74C3C;stroke-width:2.5;stroke-linecap:round;stroke-linejoin:round;stroke-dasharray:4.0168,6.0252;}
	.st9{fill:none;stroke:#E74C3C;stroke-width:2.5;stroke-linecap:round;stroke-linejoin:round;stroke-dasharray:3.9965,5.9947;}
	.st10{fill:none;stroke:#E74C3C;stroke-width:2.5;stroke-linecap:round;stroke-linejoin:round;stroke-dasharray:3.9968,5.9952;}
	.st11{fill:none;stroke:#E74C3C;stroke-width:2.5;stroke-linecap:round;stroke-linejoin:round;stroke-dasharray:4.0217,6.0326;}
	.st12{fill:none;stroke:#E74C3C;stroke-width:2.5;stroke-linecap:round;stroke-linejoin:round;stroke-dasharray:3.9979,5.9968;}
	.st13{fill:none;stroke:#E74C3C;stroke-width:2.5;stroke-linecap:round;stroke-linejoin:round;stroke-dasharray:4.0092,6.0137;}
	.st14{fill:none;stroke:#E74C3C;stroke-width:2.5;stroke-linecap:round;stroke-linejoin:round;stroke-dasharray:4.0206,6.031;}
	.st15{fill:none;stroke:#E74C3C;stroke-width:3.25;stroke-linecap:round;stroke-linejoin:round;}
	.st16{fill:none;stroke:#E74C3C;stroke-width:3.25;stroke-linecap:round;stroke-linejoin:round;stroke-dasharray:4.023,7.0402;}
	.st17{fill:none;stroke:#E74C3C;stroke-width:3.25;stroke-linecap:round;stroke-linejoin:round;stroke-dasharray:3.8935,6.8136;}
	.st18{fill:none;stroke:#E74C3C;stroke-width:3.25;stroke-linecap:round;stroke-linejoin:round;stroke-dasharray:3.9362,6.8884;}
	.st19{fill:none;stroke:#E74C3C;stroke-width:3.25;stroke-linecap:round;stroke-linejoin:round;stroke-dasharray:4.0552,7.0965;}
	.st20{fill:none;stroke:#E74C3C;stroke-width:3.25;stroke-linecap:round;stroke-linejoin:round;stroke-dasharray:4.0227,7.0397;}
	.st21{fill:none;stroke:#E74C3C;stroke-width:3.25;stroke-linecap:round;stroke-linejoin:round;stroke-dasharray:3.9887,6.9802;}
	.st22{fill:none;stroke:#E74C3C;stroke-width:3.25;stroke-linecap:round;stroke-linejoin:round;stroke-dasharray:4.0325,7.0569;}
	.st23{fill:none;stroke:#E74C3C;stroke-width:3.25;stroke-linecap:round;stroke-linejoin:round;stroke-dasharray:3.9827,6.9698;}
	.st24{fill:none;stroke:#E74C3C;stroke-width:3.25;stroke-linecap:round;stroke-linejoin:round;stroke-dasharray:3.9806,6.966;}
	.st25{fill:none;stroke:#E74C3C;stroke-width:3.25;stroke-linecap:round;stroke-linejoin:round;stroke-dasharray:3.9259,6.8703;}
	.st26{fill:none;stroke:#E74C3C;stroke-width:3.25;stroke-linecap:round;stroke-linejoin:round;stroke-dasharray:3.9678,6.9436;}
	.st27{fill:none;stroke:#E74C3C;stroke-width:3.25;stroke-linecap:round;stroke-linejoin:round;stroke-dasharray:3.9822,6.9688;}
	.st28{fill:none;stroke:#E74C3C;stroke-width:3.25;stroke-linecap:round;stroke-linejoin:round;stroke-dasharray:4.0392,7.0686;}
	.st29{fill:none;stroke:#E74C3C;stroke-width:2.5;stroke-linecap:round;stroke-linejoin:round;stroke-dasharray:2.9844,4.974;}
	.st30{fill:none;stroke:#E74C3C;stroke-width:2.5;stroke-linecap:round;stroke-linejoin:round;stroke-dasharray:2.9897,4.9829;}
	.st31{fill:none;stroke:#E74C3C;stroke-width:2.5;stroke-linecap:round;stroke-linejoin:round;stroke-dasharray:1.5376,2.5627;}
	.st32{fill:none;stroke:#E74C3C;stroke-width:2.5;stroke-linecap:round;stroke-linejoin:round;stroke-dasharray:2.8563,4.7604;}
	.st33{fill:none;stroke:#E74C3C;stroke-width:2.5;stroke-linecap:round;stroke-linejoin:round;stroke-dasharray:2.8116,4.6861;}
	.st34{fill:none;stroke:#E74C3C;stroke-width:2.5;stroke-linecap:round;stroke-linejoin:round;stroke-dasharray:3.0052,5.0087;}
	.st35{fill:none;stroke:#E74C3C;stroke-width:2.5;stroke-linecap:round;stroke-linejoin:round;stroke-dasharray:3.0144,5.024;}
	.st36{fill:none;stroke:#E74C3C;stroke-width:2.5;stroke-linecap:round;stroke-linejoin:round;stroke-dasharray:2.9901,4.9836;}
	.st37{fill:none;stroke:#E74C3C;stroke-width:2.5;stroke-linecap:round;stroke-linejoin:round;stroke-dasharray:2.99,4.9834;}
	.st38{fill:none;stroke:#E74C3C;stroke-width:2.5;stroke-linecap:round;stroke-linejoin:round;stroke-dasharray:2.9745,4.9575;}
	.st39{fill:none;stroke:#E74C3C;stroke-width:2.5;stroke-linecap:round;stroke-linejoin:round;stroke-dasharray:1.5264,2.544;}
	.st40{fill:none;stroke:#E74C3C;stroke-width:2.5;stroke-linecap:round;stroke-linejoin:round;stroke-dasharray:2.8398,4.733;}
	.st41{fill:none;stroke:#E74C3C;stroke-width:2.5;stroke-linecap:round;stroke-linejoin:round;stroke-dasharray:2.7963,4.6605;}
	.st42{fill:none;stroke:#E74C3C;stroke-width:2.5;stroke-linecap:round;stroke-linejoin:round;stroke-dasharray:3.0147,5.0245;}
	.st43{fill:none;stroke:#E74C3C;stroke-width:2.5;stroke-linecap:round;stroke-linejoin:round;stroke-dasharray:2.9903,4.9838;}
	.st44{fill:none;stroke:#E74C3C;stroke-width:2.5;stroke-linecap:round;stroke-linejoin:round;stroke-dasharray:2.9904,4.984;}
	.st45{fill:none;stroke:#E74C3C;stroke-width:2.5;stroke-linecap:round;stroke-linejoin:round;stroke-dasharray:2.9697,4.9494;}
	.st46{fill:none;stroke:#E74C3C;stroke-width:2.5;stroke-linecap:round;stroke-linejoin:round;stroke-dasharray:2.9697,4.9495;}
	.st47{fill:none;stroke:#E74C3C;stroke-width:2.5;stroke-linecap:round;stroke-linejoin:round;stroke-dasharray:3.0296,5.0494;}
	.st48{fill:none;stroke:#E74C3C;stroke-width:2.5;stroke-linecap:round;stroke-linejoin:round;stroke-dasharray:4.011,6.0166;}
	.st49{fill:none;stroke:#E74C3C;stroke-width:2.5;stroke-linecap:round;stroke-linejoin:round;stroke-dasharray:4.0213,6.0319;}
	.st50{fill:none;stroke:#E74C3C;stroke-width:2.5;stroke-linecap:round;stroke-linejoin:round;stroke-dasharray:4.0083,6.0125;}
	.st51{fill:none;stroke:#E74C3C;stroke-width:2.5;stroke-linecap:round;stroke-linejoin:round;stroke-dasharray:3.4946,5.2419;}
	.st52{fill:none;stroke:#E74C3C;stroke-width:2.5;stroke-linecap:round;stroke-linejoin:round;stroke-dasharray:2.2704,3.4056;}
	.st53{fill:none;stroke:#E74C3C;stroke-width:2.5;stroke-linecap:round;stroke-linejoin:round;stroke-dasharray:3.9456,5.9184;}
	.st54{fill:none;stroke:#E74C3C;stroke-width:2.5;stroke-linecap:round;stroke-linejoin:round;stroke-dasharray:3.9857,5.9786;}
	.st55{fill:none;stroke:#E74C3C;stroke-width:2.5;stroke-linecap:round;stroke-linejoin:round;stroke-dasharray:3.9942,5.9913;}
	.st56{fill:none;stroke:#E74C3C;stroke-width:2.5;stroke-linecap:round;stroke-linejoin:round;stroke-dasharray:4.0209,6.0313;}
	.st57{fill:none;stroke:#E74C3C;stroke-width:2.5;stroke-linecap:round;stroke-linejoin:round;stroke-dasharray:4.0245,6.0367;}
	.st58{fill:none;stroke:#E74C3C;stroke-width:2.5;stroke-linecap:round;stroke-linejoin:round;stroke-dasharray:3.6611,5.4916;}
	.st59{fill:none;stroke:#E74C3C;stroke-width:2.5;stroke-linecap:round;stroke-linejoin:round;stroke-dasharray:2.4029,3.6044;}
	.st60{fill:none;stroke:#E74C3C;stroke-width:2.5;stroke-linecap:round;stroke-linejoin:round;stroke-dasharray:4.1095,6.1643;}
	.st61{fill:none;stroke:#E74C3C;stroke-width:2.5;stroke-linecap:round;stroke-linejoin:round;stroke-dasharray:4.0068,6.0101;}
	.st62{fill:none;stroke:#E74C3C;stroke-width:2.5;stroke-linecap:round;stroke-linejoin:round;stroke-dasharray:3.9849,5.9774;}
	.st63{fill:none;stroke:#E74C3C;stroke-width:2.5;stroke-linecap:round;stroke-linejoin:round;stroke-dasharray:3.9981,5.9972;}
	.st64{fill:none;stroke:#E74C3C;stroke-width:2.5;stroke-linecap:round;stroke-linejoin:round;stroke-dasharray:4.0053,6.0079;}
	.st65{fill:none;stroke:#E74C3C;stroke-width:2.5;stroke-linecap:round;stroke-linejoin:round;stroke-dasharray:3.9953,5.993;}
	.st66{fill:none;stroke:#E74C3C;stroke-width:2.5;stroke-linecap:round;stroke-linejoin:round;stroke-dasharray:3.4813,5.222;}
	.st67{fill:none;stroke:#E74C3C;stroke-width:2.5;stroke-linecap:round;stroke-linejoin:round;stroke-dasharray:2.2599,3.3898;}
	.st68{fill:none;stroke:#E74C3C;stroke-width:2.5;stroke-linecap:round;stroke-linejoin:round;stroke-dasharray:3.9328,5.8992;}
	.st69{fill:none;stroke:#E74C3C;stroke-width:2.5;stroke-linecap:round;stroke-linejoin:round;stroke-dasharray:3.9611,5.9416;}
	.st70{fill:none;stroke:#E74C3C;stroke-width:2.5;stroke-linecap:round;stroke-linejoin:round;stroke-dasharray:3.9202,5.8803;}
	.st71{fill:none;stroke:#E74C3C;stroke-width:2.5;stroke-linecap:round;stroke-linejoin:round;stroke-dasharray:3.9615,5.9423;}
	.st72{fill:none;stroke:#E74C3C;stroke-width:2.35;stroke-linecap:round;stroke-linejoin:round;stroke-miterlimit:10;}
	.st73{fill:none;stroke:#E74C3C;stroke-width:2.75;stroke-linecap:round;stroke-linejoin:round;stroke-miterlimit:10;}
	.st74{fill:none;stroke:#E74C3C;stroke-width:2.25;stroke-linecap:round;stroke-linejoin:round;stroke-miterlimit:10;}
	.st75{fill:none;stroke:#E74C3C;stroke-width:2.5;stroke-linecap:round;stroke-linejoin:round;stroke-miterlimit:10;}
	.st76{fill:none;stroke:#E74C3C;stroke-width:3;stroke-linecap:round;stroke-linejoin:round;stroke-miterlimit:10;}
	.st77{fill:none;stroke:#E74C3C;stroke-width:3.5;stroke-linecap:round;stroke-linejoin:round;stroke-miterlimit:10;}
</style>
<g id="FILL-BACKGROUND">
	<rect x="0" y="0" class="st0" width="1000" height="775"/>
</g>
<g id="N-DIMENSIONS">
	<g>
		<g>
			<g id="POLYLINE_616_">
				<polyline class="st1" points="225.46,479.86 219.73,485.58 225.46,491.31 				"/>
			</g>
			<g id="POLYLINE_320_">
				<line class="st1" x1="219.73" y1="485.58" x2="271" y2="485.58"/>
			</g>
			<g id="POLYLINE_319_">
				<line class="st1" x1="353" y1="485.58" x2="401.11" y2="485.58"/>
			</g>
			<g id="POLYLINE_318_">
				<polyline class="st1" points="395.37,479.87 401.09,485.6 395.37,491.32 				"/>
			</g>
			<g id="MTEXT_52_">
				<g>
					<path class="st2" d="M296.11,469.73c-0.09-0.09-0.13-0.2-0.13-0.33v-2.92h-6.5c-0.13,0-0.24-0.04-0.33-0.13
						s-0.13-0.2-0.13-0.33v-0.74c0-0.19,0.07-0.39,0.22-0.6l6.02-8.48c0.07-0.11,0.17-0.19,0.3-0.25c0.13-0.06,0.28-0.09,0.44-0.09
						h1.36c0.15,0,0.26,0.04,0.34,0.12s0.12,0.19,0.12,0.34v8.48h1.82c0.13,0,0.24,0.04,0.33,0.13c0.09,0.09,0.13,0.2,0.13,0.33
						v0.76c0,0.13-0.04,0.24-0.13,0.33c-0.09,0.09-0.2,0.13-0.33,0.13h-1.82v2.92c0,0.13-0.04,0.24-0.13,0.33s-0.2,0.13-0.33,0.13
						h-0.92C296.3,469.86,296.19,469.82,296.11,469.73z M291.1,464.84h4.9v-6.96L291.1,464.84z"/>
					<path class="st2" d="M301.93,469.73c-0.09-0.09-0.13-0.2-0.13-0.33v-1.38c0-0.13,0.04-0.25,0.13-0.34
						c0.09-0.09,0.2-0.14,0.33-0.14h1.38c0.13,0,0.24,0.05,0.33,0.14c0.09,0.09,0.13,0.21,0.13,0.34v1.38
						c0,0.13-0.04,0.24-0.13,0.33c-0.09,0.09-0.2,0.13-0.33,0.13h-1.38C302.12,469.86,302.01,469.82,301.93,469.73z"/>
					<path class="st2" d="M307.55,469.73c-0.07-0.09-0.11-0.19-0.11-0.31l0.04-0.18l5-11.7h-6.6c-0.13,0-0.24-0.04-0.33-0.13
						c-0.09-0.09-0.13-0.2-0.13-0.33v-0.74c0-0.15,0.04-0.26,0.12-0.35s0.19-0.13,0.34-0.13h8.16c0.15,0,0.26,0.04,0.34,0.13
						s0.12,0.2,0.12,0.35v0.68c0,0.24-0.05,0.5-0.16,0.78l-4.94,11.56c-0.07,0.15-0.14,0.27-0.22,0.36
						c-0.08,0.09-0.19,0.14-0.34,0.14h-1C307.72,469.86,307.62,469.82,307.55,469.73z"/>
					<path class="st2" d="M318.26,469.52c-0.73-0.36-1.29-0.83-1.68-1.41s-0.59-1.2-0.62-1.87v-0.04c0-0.11,0.04-0.19,0.12-0.26
						s0.17-0.1,0.28-0.1h0.98c0.28,0,0.46,0.15,0.54,0.44c0.2,0.72,0.57,1.26,1.11,1.61s1.16,0.53,1.87,0.53
						c0.91,0,1.66-0.28,2.26-0.83c0.6-0.55,0.9-1.32,0.9-2.29c0-0.89-0.3-1.6-0.9-2.13c-0.6-0.53-1.35-0.79-2.26-0.79
						c-0.48,0-0.87,0.06-1.16,0.18c-0.29,0.12-0.59,0.29-0.9,0.52c-0.17,0.13-0.32,0.23-0.43,0.29c-0.11,0.06-0.24,0.09-0.37,0.09
						h-0.96c-0.12,0-0.23-0.04-0.32-0.13c-0.09-0.09-0.13-0.19-0.12-0.31l0.62-6.66c0.04-0.33,0.21-0.5,0.5-0.5h6.92
						c0.15,0,0.26,0.04,0.34,0.12c0.08,0.08,0.12,0.19,0.12,0.34v0.74c0,0.13-0.04,0.24-0.13,0.32c-0.09,0.08-0.2,0.12-0.33,0.12
						h-5.76l-0.36,4.02c0.64-0.45,1.5-0.68,2.58-0.68c0.89,0,1.71,0.18,2.44,0.53c0.73,0.35,1.32,0.87,1.75,1.55
						c0.43,0.68,0.65,1.49,0.65,2.42c0,0.99-0.22,1.84-0.65,2.55c-0.43,0.71-1.03,1.25-1.8,1.62c-0.77,0.37-1.64,0.55-2.63,0.55
						C319.86,470.06,318.99,469.88,318.26,469.52z"/>
					<path class="st2" d="M328.09,459.34c-0.06-0.08-0.08-0.18-0.05-0.3l0.44-2.8c0.05-0.39,0.24-0.58,0.56-0.58h1.28
						c0.09,0,0.17,0.03,0.23,0.1c0.06,0.07,0.09,0.15,0.09,0.24c0,0.13-0.02,0.24-0.06,0.32l-1.04,2.7
						c-0.07,0.15-0.14,0.26-0.22,0.33c-0.08,0.07-0.2,0.11-0.36,0.11h-0.62C328.23,459.46,328.15,459.42,328.09,459.34z
						 M331.23,459.34c-0.06-0.08-0.08-0.18-0.05-0.3l0.44-2.8c0.05-0.39,0.24-0.58,0.56-0.58h1.28c0.09,0,0.17,0.03,0.23,0.1
						c0.06,0.07,0.09,0.15,0.09,0.24c0,0.13-0.02,0.24-0.06,0.32l-1.04,2.7c-0.07,0.15-0.14,0.26-0.22,0.33s-0.2,0.11-0.36,0.11
						h-0.62C331.37,459.46,331.29,459.42,331.23,459.34z"/>
					<path class="st2" d="M282.12,491.73c-0.08-0.09-0.12-0.2-0.12-0.33v-11.28l-3.36,2.58c-0.09,0.08-0.19,0.12-0.3,0.12
						c-0.12,0-0.23-0.07-0.34-0.2l-0.48-0.62c-0.07-0.09-0.1-0.19-0.1-0.28c0-0.15,0.07-0.27,0.2-0.36l4.34-3.36
						c0.15-0.09,0.32-0.14,0.52-0.14h0.94c0.13,0,0.24,0.04,0.33,0.13s0.13,0.2,0.13,0.33v13.08c0,0.13-0.04,0.24-0.13,0.33
						s-0.2,0.13-0.33,0.13h-0.98C282.3,491.86,282.2,491.82,282.12,491.73z"/>
					<path class="st2" d="M286.53,491.73c-0.09-0.09-0.13-0.2-0.13-0.33v-0.6c0-0.31,0.17-0.6,0.5-0.88l4.36-4.34
						c0.99-0.84,1.67-1.53,2.04-2.06s0.56-1.1,0.56-1.7c0-0.79-0.22-1.4-0.66-1.85c-0.44-0.45-1.08-0.67-1.92-0.67
						c-0.8,0-1.43,0.23-1.9,0.7c-0.47,0.47-0.75,1.09-0.86,1.88c-0.03,0.15-0.09,0.26-0.2,0.34c-0.11,0.08-0.21,0.12-0.32,0.12
						h-0.96c-0.12,0-0.22-0.04-0.3-0.12s-0.12-0.17-0.12-0.28c0.03-0.71,0.22-1.39,0.57-2.05c0.35-0.66,0.88-1.2,1.57-1.62
						s1.53-0.63,2.52-0.63c1.49,0,2.62,0.39,3.37,1.17c0.75,0.78,1.13,1.77,1.13,2.97c0,0.84-0.2,1.6-0.61,2.27
						c-0.41,0.67-1.04,1.38-1.91,2.13l-3.94,4h6.3c0.15,0,0.26,0.04,0.34,0.12c0.08,0.08,0.12,0.19,0.12,0.34v0.76
						c0,0.13-0.04,0.24-0.13,0.33c-0.09,0.09-0.2,0.13-0.33,0.13h-8.76C286.72,491.86,286.61,491.82,286.53,491.73z"/>
					<path class="st2" d="M302.3,491.73c-0.08-0.09-0.12-0.2-0.12-0.33v-11.28l-3.36,2.58c-0.09,0.08-0.19,0.12-0.3,0.12
						c-0.12,0-0.23-0.07-0.34-0.2L297.7,482c-0.07-0.09-0.1-0.19-0.1-0.28c0-0.15,0.07-0.27,0.2-0.36l4.34-3.36
						c0.15-0.09,0.32-0.14,0.52-0.14h0.94c0.13,0,0.24,0.04,0.33,0.13s0.13,0.2,0.13,0.33v13.08c0,0.13-0.04,0.24-0.13,0.33
						s-0.2,0.13-0.33,0.13h-0.98C302.48,491.86,302.38,491.82,302.3,491.73z"/>
					<path class="st2" d="M312.15,491.73c-0.09-0.09-0.13-0.2-0.13-0.33v-9.48c0-0.13,0.04-0.24,0.13-0.33
						c0.09-0.09,0.2-0.13,0.33-0.13h0.84c0.13,0,0.24,0.04,0.32,0.13c0.08,0.09,0.12,0.2,0.12,0.33v0.68
						c0.72-0.89,1.69-1.34,2.92-1.34c1.47,0,2.51,0.61,3.12,1.84c0.32-0.56,0.78-1.01,1.37-1.34c0.59-0.33,1.26-0.5,1.99-0.5
						c1.09,0,1.99,0.37,2.68,1.12c0.69,0.75,1.04,1.83,1.04,3.24v5.78c0,0.13-0.04,0.24-0.13,0.33c-0.09,0.09-0.2,0.13-0.33,0.13
						h-0.86c-0.13,0-0.24-0.04-0.33-0.13s-0.13-0.2-0.13-0.33v-5.6c0-1.07-0.22-1.83-0.66-2.29c-0.44-0.46-1.02-0.69-1.74-0.69
						c-0.64,0-1.19,0.24-1.65,0.71c-0.46,0.47-0.69,1.23-0.69,2.27v5.6c0,0.13-0.04,0.24-0.13,0.33s-0.2,0.13-0.33,0.13h-0.88
						c-0.13,0-0.24-0.04-0.33-0.13s-0.13-0.2-0.13-0.33v-5.6c0-1.05-0.23-1.81-0.69-2.28s-1.03-0.7-1.71-0.7
						c-0.64,0-1.19,0.23-1.65,0.7s-0.69,1.22-0.69,2.26v5.62c0,0.13-0.04,0.24-0.13,0.33s-0.2,0.13-0.33,0.13h-0.88
						C312.34,491.86,312.23,491.82,312.15,491.73z"/>
					<path class="st2" d="M329.91,491.73c-0.09-0.09-0.13-0.2-0.13-0.33v-9.48c0-0.13,0.04-0.24,0.13-0.33
						c0.09-0.09,0.2-0.13,0.33-0.13h0.84c0.13,0,0.24,0.04,0.32,0.13c0.08,0.09,0.12,0.2,0.12,0.33v0.68
						c0.72-0.89,1.69-1.34,2.92-1.34c1.47,0,2.51,0.61,3.12,1.84c0.32-0.56,0.78-1.01,1.37-1.34c0.59-0.33,1.26-0.5,1.99-0.5
						c1.09,0,1.99,0.37,2.68,1.12c0.69,0.75,1.04,1.83,1.04,3.24v5.78c0,0.13-0.04,0.24-0.13,0.33c-0.09,0.09-0.2,0.13-0.33,0.13
						h-0.86c-0.13,0-0.24-0.04-0.33-0.13s-0.13-0.2-0.13-0.33v-5.6c0-1.07-0.22-1.83-0.66-2.29c-0.44-0.46-1.02-0.69-1.74-0.69
						c-0.64,0-1.19,0.24-1.65,0.71c-0.46,0.47-0.69,1.23-0.69,2.27v5.6c0,0.13-0.04,0.24-0.13,0.33s-0.2,0.13-0.33,0.13h-0.88
						c-0.13,0-0.24-0.04-0.33-0.13s-0.13-0.2-0.13-0.33v-5.6c0-1.05-0.23-1.81-0.69-2.28s-1.03-0.7-1.71-0.7
						c-0.64,0-1.19,0.23-1.65,0.7s-0.69,1.22-0.69,2.26v5.62c0,0.13-0.04,0.24-0.13,0.33s-0.2,0.13-0.33,0.13h-0.88
						C330.1,491.86,329.99,491.82,329.91,491.73z"/>
				</g>
			</g>
		</g>
		<g>
			<g id="POLYLINE_317_">
				<polyline class="st1" points="271.46,707.86 265.73,713.58 271.46,719.31 				"/>
			</g>
			<g id="POLYLINE_316_">
				<line class="st1" x1="265.73" y1="713.58" x2="281" y2="713.58"/>
			</g>
			<g id="POLYLINE_313_">
				<line class="st1" x1="339" y1="713.58" x2="354.11" y2="713.58"/>
			</g>
			<g id="POLYLINE_312_">
				<polyline class="st1" points="348.37,707.87 354.09,713.6 348.37,719.32 				"/>
			</g>
			<g id="MTEXT_51_">
				<g>
					<path class="st2" d="M289.26,719.73c-0.09-0.09-0.13-0.2-0.13-0.33v-0.6c0-0.31,0.17-0.6,0.5-0.88l4.36-4.34
						c0.99-0.84,1.67-1.53,2.04-2.06s0.56-1.1,0.56-1.7c0-0.79-0.22-1.4-0.66-1.85c-0.44-0.45-1.08-0.67-1.92-0.67
						c-0.8,0-1.43,0.23-1.9,0.7c-0.47,0.47-0.75,1.09-0.86,1.88c-0.03,0.15-0.09,0.26-0.2,0.34c-0.11,0.08-0.21,0.12-0.32,0.12
						h-0.96c-0.12,0-0.22-0.04-0.3-0.12s-0.12-0.17-0.12-0.28c0.03-0.71,0.22-1.39,0.57-2.05c0.35-0.66,0.88-1.2,1.57-1.62
						s1.53-0.63,2.52-0.63c1.49,0,2.62,0.39,3.37,1.17c0.75,0.78,1.13,1.77,1.13,2.97c0,0.84-0.2,1.6-0.61,2.27
						c-0.41,0.67-1.04,1.38-1.91,2.13l-3.94,4h6.3c0.15,0,0.26,0.04,0.34,0.12c0.08,0.08,0.12,0.19,0.12,0.34v0.76
						c0,0.13-0.04,0.24-0.13,0.33c-0.09,0.09-0.2,0.13-0.33,0.13h-8.76C289.45,719.86,289.34,719.82,289.26,719.73z"/>
					<path class="st2" d="M301.32,719.73c-0.09-0.09-0.13-0.2-0.13-0.33v-1.38c0-0.13,0.04-0.25,0.13-0.34
						c0.09-0.09,0.2-0.14,0.33-0.14h1.38c0.13,0,0.24,0.05,0.33,0.14c0.09,0.09,0.13,0.21,0.13,0.34v1.38
						c0,0.13-0.04,0.24-0.13,0.33c-0.09,0.09-0.2,0.13-0.33,0.13h-1.38C301.51,719.86,301.4,719.82,301.32,719.73z"/>
					<path class="st2" d="M307.06,718.55c-0.79-1.01-1.22-2.32-1.27-3.95l-0.02-1.72l0.02-1.78c0.04-1.61,0.46-2.92,1.27-3.93
						c0.81-1.01,2.06-1.51,3.77-1.51c1.72,0,2.98,0.5,3.79,1.51c0.81,1.01,1.23,2.32,1.27,3.93c0.01,0.37,0.02,0.97,0.02,1.78
						c0,0.79-0.01,1.36-0.02,1.72c-0.05,1.63-0.48,2.94-1.27,3.95c-0.79,1.01-2.06,1.51-3.79,1.51
						C309.11,720.06,307.85,719.56,307.06,718.55z M313.15,717.38c0.52-0.68,0.79-1.64,0.82-2.88c0.01-0.39,0.02-0.94,0.02-1.66
						c0-0.73-0.01-1.28-0.02-1.64c-0.03-1.23-0.3-2.18-0.83-2.87c-0.53-0.69-1.3-1.03-2.31-1.03c-1.01,0-1.78,0.34-2.3,1.03
						c-0.52,0.69-0.79,1.64-0.82,2.87l-0.02,1.64l0.02,1.66c0.03,1.24,0.3,2.2,0.82,2.88c0.52,0.68,1.29,1.02,2.3,1.02
						C311.85,718.4,312.63,718.06,313.15,717.38z"/>
					<path class="st2" d="M320.39,719.55c-0.76-0.34-1.34-0.78-1.73-1.33c-0.39-0.55-0.6-1.11-0.63-1.7c0-0.12,0.04-0.22,0.12-0.29
						c0.08-0.07,0.18-0.11,0.3-0.11h0.9c0.15,0,0.27,0.03,0.36,0.09c0.09,0.06,0.17,0.18,0.22,0.35c0.17,0.68,0.55,1.16,1.13,1.44
						c0.58,0.28,1.26,0.42,2.05,0.42c0.96,0,1.72-0.23,2.29-0.69c0.57-0.46,0.85-1.12,0.85-1.97c0-1.63-0.99-2.44-2.98-2.44h-1.88
						c-0.13,0-0.24-0.04-0.33-0.13s-0.13-0.2-0.13-0.33v-0.52c0-0.2,0.07-0.37,0.22-0.52l3.9-4.32h-5.92
						c-0.13,0-0.24-0.04-0.33-0.12c-0.09-0.08-0.13-0.19-0.13-0.32v-0.72c0-0.15,0.04-0.26,0.13-0.35s0.2-0.13,0.33-0.13h7.92
						c0.15,0,0.26,0.04,0.35,0.13c0.09,0.09,0.13,0.2,0.13,0.35V707c0,0.15-0.07,0.3-0.2,0.46l-3.9,4.38h0.32
						c1.36,0.04,2.44,0.39,3.23,1.06c0.79,0.67,1.19,1.64,1.19,2.92c0,0.88-0.22,1.64-0.65,2.27c-0.43,0.63-1.04,1.12-1.81,1.46
						c-0.77,0.34-1.65,0.51-2.62,0.51C322.05,720.06,321.15,719.89,320.39,719.55z"/>
					<path class="st2" d="M330.34,709.34c-0.06-0.08-0.08-0.18-0.05-0.3l0.44-2.8c0.05-0.39,0.24-0.58,0.56-0.58h1.28
						c0.09,0,0.17,0.03,0.23,0.1c0.06,0.07,0.09,0.15,0.09,0.24c0,0.13-0.02,0.24-0.06,0.32l-1.04,2.7
						c-0.07,0.15-0.14,0.26-0.22,0.33c-0.08,0.07-0.2,0.11-0.36,0.11h-0.62C330.48,709.46,330.4,709.42,330.34,709.34z
						 M333.48,709.34c-0.06-0.08-0.08-0.18-0.05-0.3l0.44-2.8c0.05-0.39,0.24-0.58,0.56-0.58h1.28c0.09,0,0.17,0.03,0.23,0.1
						c0.06,0.07,0.09,0.15,0.09,0.24c0,0.13-0.02,0.24-0.06,0.32l-1.04,2.7c-0.07,0.15-0.14,0.26-0.22,0.33s-0.2,0.11-0.36,0.11
						h-0.62C333.62,709.46,333.54,709.42,333.48,709.34z"/>
					<path class="st2" d="M277.09,741.52c-0.73-0.36-1.29-0.83-1.68-1.41s-0.59-1.2-0.62-1.87v-0.04c0-0.11,0.04-0.19,0.12-0.26
						s0.17-0.1,0.28-0.1h0.98c0.28,0,0.46,0.15,0.54,0.44c0.2,0.72,0.57,1.26,1.11,1.61s1.16,0.53,1.87,0.53
						c0.91,0,1.66-0.28,2.26-0.83c0.6-0.55,0.9-1.32,0.9-2.29c0-0.89-0.3-1.6-0.9-2.13c-0.6-0.53-1.35-0.79-2.26-0.79
						c-0.48,0-0.87,0.06-1.16,0.18c-0.29,0.12-0.59,0.29-0.9,0.52c-0.17,0.13-0.32,0.23-0.43,0.29c-0.11,0.06-0.24,0.09-0.37,0.09
						h-0.96c-0.12,0-0.23-0.04-0.32-0.13c-0.09-0.09-0.13-0.19-0.12-0.31l0.62-6.66c0.04-0.33,0.21-0.5,0.5-0.5h6.92
						c0.15,0,0.26,0.04,0.34,0.12c0.08,0.08,0.12,0.19,0.12,0.34v0.74c0,0.13-0.04,0.24-0.13,0.32c-0.09,0.08-0.2,0.12-0.33,0.12
						h-5.76l-0.36,4.02c0.64-0.45,1.5-0.68,2.58-0.68c0.89,0,1.71,0.18,2.44,0.53c0.73,0.35,1.32,0.87,1.75,1.55
						c0.43,0.68,0.65,1.49,0.65,2.42c0,0.99-0.22,1.84-0.65,2.55c-0.43,0.71-1.03,1.25-1.8,1.62c-0.77,0.37-1.64,0.55-2.63,0.55
						C278.69,742.06,277.82,741.88,277.09,741.52z"/>
					<path class="st2" d="M290.59,741.73c-0.08-0.09-0.12-0.2-0.12-0.33v-11.28l-3.36,2.58c-0.09,0.08-0.19,0.12-0.3,0.12
						c-0.12,0-0.23-0.07-0.34-0.2l-0.48-0.62c-0.07-0.09-0.1-0.19-0.1-0.28c0-0.15,0.07-0.27,0.2-0.36l4.34-3.36
						c0.15-0.09,0.32-0.14,0.52-0.14h0.94c0.13,0,0.24,0.04,0.33,0.13s0.13,0.2,0.13,0.33v13.08c0,0.13-0.04,0.24-0.13,0.33
						s-0.2,0.13-0.33,0.13h-0.98C290.77,741.86,290.67,741.82,290.59,741.73z"/>
					<path class="st2" d="M295.38,741.73c-0.09-0.09-0.13-0.2-0.13-0.33v-1.38c0-0.13,0.04-0.25,0.13-0.34
						c0.09-0.09,0.2-0.14,0.33-0.14h1.38c0.13,0,0.24,0.05,0.33,0.14c0.09,0.09,0.13,0.21,0.13,0.34v1.38
						c0,0.13-0.04,0.24-0.13,0.33c-0.09,0.09-0.2,0.13-0.33,0.13h-1.38C295.57,741.86,295.46,741.82,295.38,741.73z"/>
					<path class="st2" d="M302.02,741.41c-0.78-0.43-1.37-1.02-1.78-1.75s-0.61-1.53-0.61-2.4c0-1.15,0.46-2.37,1.38-3.68l3.82-5.32
						c0.01-0.01,0.05-0.06,0.11-0.14s0.14-0.14,0.23-0.19c0.09-0.05,0.2-0.07,0.32-0.07h0.98c0.12,0,0.22,0.04,0.29,0.13
						c0.07,0.09,0.11,0.19,0.11,0.31c0,0.07-0.03,0.15-0.1,0.26l-2.92,4.08c0.35-0.08,0.73-0.12,1.16-0.12
						c0.97,0,1.83,0.22,2.57,0.65c0.74,0.43,1.31,1.01,1.72,1.72c0.41,0.71,0.61,1.5,0.61,2.35c0,0.85-0.2,1.65-0.61,2.39
						c-0.41,0.74-1,1.33-1.77,1.77s-1.69,0.66-2.74,0.66C303.72,742.06,302.8,741.85,302.02,741.41z M306.39,740.04
						c0.49-0.24,0.89-0.6,1.18-1.07c0.29-0.47,0.44-1.04,0.44-1.71c0-0.65-0.15-1.22-0.45-1.69c-0.3-0.47-0.7-0.83-1.19-1.08
						c-0.49-0.25-1.03-0.37-1.6-0.37s-1.11,0.12-1.6,0.37c-0.49,0.25-0.89,0.61-1.18,1.08c-0.29,0.47-0.44,1.04-0.44,1.69
						c0,0.67,0.15,1.24,0.44,1.71c0.29,0.47,0.69,0.83,1.18,1.07c0.49,0.24,1.03,0.36,1.6,0.36
						C305.35,740.4,305.89,740.28,306.39,740.04z"/>
					<path class="st2" d="M317.2,741.73c-0.09-0.09-0.13-0.2-0.13-0.33v-9.48c0-0.13,0.04-0.24,0.13-0.33
						c0.09-0.09,0.2-0.13,0.33-0.13h0.84c0.13,0,0.24,0.04,0.32,0.13c0.08,0.09,0.12,0.2,0.12,0.33v0.68
						c0.72-0.89,1.69-1.34,2.92-1.34c1.47,0,2.51,0.61,3.12,1.84c0.32-0.56,0.78-1.01,1.37-1.34c0.59-0.33,1.26-0.5,1.99-0.5
						c1.09,0,1.99,0.37,2.68,1.12c0.69,0.75,1.04,1.83,1.04,3.24v5.78c0,0.13-0.04,0.24-0.13,0.33c-0.09,0.09-0.2,0.13-0.33,0.13
						h-0.86c-0.13,0-0.24-0.04-0.33-0.13s-0.13-0.2-0.13-0.33v-5.6c0-1.07-0.22-1.83-0.66-2.29c-0.44-0.46-1.02-0.69-1.74-0.69
						c-0.64,0-1.19,0.24-1.65,0.71c-0.46,0.47-0.69,1.23-0.69,2.27v5.6c0,0.13-0.04,0.24-0.13,0.33s-0.2,0.13-0.33,0.13h-0.88
						c-0.13,0-0.24-0.04-0.33-0.13s-0.13-0.2-0.13-0.33v-5.6c0-1.05-0.23-1.81-0.69-2.28s-1.03-0.7-1.71-0.7
						c-0.64,0-1.19,0.23-1.65,0.7s-0.69,1.22-0.69,2.26v5.62c0,0.13-0.04,0.24-0.13,0.33s-0.2,0.13-0.33,0.13h-0.88
						C317.39,741.86,317.28,741.82,317.2,741.73z"/>
					<path class="st2" d="M334.96,741.73c-0.09-0.09-0.13-0.2-0.13-0.33v-9.48c0-0.13,0.04-0.24,0.13-0.33
						c0.09-0.09,0.2-0.13,0.33-0.13h0.84c0.13,0,0.24,0.04,0.32,0.13c0.08,0.09,0.12,0.2,0.12,0.33v0.68
						c0.72-0.89,1.69-1.34,2.92-1.34c1.47,0,2.51,0.61,3.12,1.84c0.32-0.56,0.78-1.01,1.37-1.34c0.59-0.33,1.26-0.5,1.99-0.5
						c1.09,0,1.99,0.37,2.68,1.12c0.69,0.75,1.04,1.83,1.04,3.24v5.78c0,0.13-0.04,0.24-0.13,0.33c-0.09,0.09-0.2,0.13-0.33,0.13
						h-0.86c-0.13,0-0.24-0.04-0.33-0.13s-0.13-0.2-0.13-0.33v-5.6c0-1.07-0.22-1.83-0.66-2.29c-0.44-0.46-1.02-0.69-1.74-0.69
						c-0.64,0-1.19,0.24-1.65,0.71c-0.46,0.47-0.69,1.23-0.69,2.27v5.6c0,0.13-0.04,0.24-0.13,0.33s-0.2,0.13-0.33,0.13h-0.88
						c-0.13,0-0.24-0.04-0.33-0.13s-0.13-0.2-0.13-0.33v-5.6c0-1.05-0.23-1.81-0.69-2.28s-1.03-0.7-1.71-0.7
						c-0.64,0-1.19,0.23-1.65,0.7s-0.69,1.22-0.69,2.26v5.62c0,0.13-0.04,0.24-0.13,0.33s-0.2,0.13-0.33,0.13h-0.88
						C335.15,741.86,335.04,741.82,334.96,741.73z"/>
				</g>
			</g>
		</g>
		<g>
			<g id="POLYLINE_310_">
				<polyline class="st1" points="446.4,49.85 440.68,44.12 434.95,49.85 				"/>
			</g>
			<g id="POLYLINE_309_">
				<line class="st1" x1="440.68" y1="44.12" x2="440.68" y2="208"/>
			</g>
			<g id="POLYLINE_308_">
				<line class="st1" x1="440.68" y1="263" x2="440.68" y2="688.72"/>
			</g>
			<g id="POLYLINE_307_">
				<polyline class="st1" points="446.39,682.99 440.67,688.71 434.94,682.99 				"/>
			</g>
			<g id="MTEXT_50_" class="st3">
				<g>
					<path class="st2" d="M433.59,230.45c-0.08-0.09-0.12-0.2-0.12-0.33v-11.28l-3.36,2.58c-0.09,0.08-0.19,0.12-0.3,0.12
						c-0.12,0-0.23-0.07-0.34-0.2l-0.48-0.62c-0.07-0.09-0.1-0.19-0.1-0.28c0-0.15,0.07-0.27,0.2-0.36l4.34-3.36
						c0.15-0.09,0.32-0.14,0.52-0.14h0.94c0.13,0,0.24,0.04,0.33,0.13s0.13,0.2,0.13,0.33v13.08c0,0.13-0.04,0.24-0.13,0.33
						s-0.2,0.13-0.33,0.13h-0.98C433.77,230.58,433.67,230.54,433.59,230.45z"/>
					<path class="st2" d="M440.11,230.24c-0.73-0.36-1.29-0.83-1.68-1.41s-0.59-1.2-0.62-1.87v-0.04c0-0.11,0.04-0.19,0.12-0.26
						s0.17-0.1,0.28-0.1h0.98c0.28,0,0.46,0.15,0.54,0.44c0.2,0.72,0.57,1.26,1.11,1.61s1.16,0.53,1.87,0.53
						c0.91,0,1.66-0.28,2.26-0.83c0.6-0.55,0.9-1.32,0.9-2.29c0-0.89-0.3-1.6-0.9-2.13c-0.6-0.53-1.35-0.79-2.26-0.79
						c-0.48,0-0.87,0.06-1.16,0.18c-0.29,0.12-0.59,0.29-0.9,0.52c-0.17,0.13-0.32,0.23-0.43,0.29c-0.11,0.06-0.24,0.09-0.37,0.09
						h-0.96c-0.12,0-0.23-0.04-0.32-0.13c-0.09-0.09-0.13-0.19-0.12-0.31l0.62-6.66c0.04-0.33,0.21-0.5,0.5-0.5h6.92
						c0.15,0,0.26,0.04,0.34,0.12c0.08,0.08,0.12,0.19,0.12,0.34v0.74c0,0.13-0.04,0.24-0.13,0.32c-0.09,0.08-0.2,0.12-0.33,0.12
						h-5.76l-0.36,4.02c0.64-0.45,1.5-0.68,2.58-0.68c0.89,0,1.71,0.18,2.44,0.53c0.73,0.35,1.32,0.87,1.75,1.55
						c0.43,0.68,0.65,1.49,0.65,2.42c0,0.99-0.22,1.84-0.65,2.55c-0.43,0.71-1.03,1.25-1.8,1.62c-0.77,0.37-1.64,0.55-2.63,0.55
						C441.71,230.78,440.84,230.6,440.11,230.24z"/>
					<path class="st2" d="M449.94,220.06c-0.06-0.08-0.08-0.18-0.05-0.3l0.44-2.8c0.05-0.39,0.24-0.58,0.56-0.58h1.28
						c0.09,0,0.17,0.03,0.23,0.1c0.06,0.07,0.09,0.15,0.09,0.24c0,0.13-0.02,0.24-0.06,0.32l-1.04,2.7
						c-0.07,0.15-0.14,0.26-0.22,0.33c-0.08,0.07-0.2,0.11-0.36,0.11h-0.62C450.08,220.18,450,220.14,449.94,220.06z M453.08,220.06
						c-0.06-0.08-0.08-0.18-0.05-0.3l0.44-2.8c0.05-0.39,0.24-0.58,0.56-0.58h1.28c0.09,0,0.17,0.03,0.23,0.1
						c0.06,0.07,0.09,0.15,0.09,0.24c0,0.13-0.02,0.24-0.06,0.32l-1.04,2.7c-0.07,0.15-0.14,0.26-0.22,0.33s-0.2,0.11-0.36,0.11
						h-0.62C453.22,220.18,453.14,220.14,453.08,220.06z"/>
					<path class="st2" d="M418.92,252.07c-0.76-0.34-1.34-0.78-1.73-1.33c-0.39-0.55-0.6-1.11-0.63-1.7c0-0.12,0.04-0.22,0.12-0.29
						c0.08-0.07,0.18-0.11,0.3-0.11h0.9c0.15,0,0.27,0.03,0.36,0.09c0.09,0.06,0.17,0.18,0.22,0.35c0.17,0.68,0.55,1.16,1.13,1.44
						c0.58,0.28,1.26,0.42,2.05,0.42c0.96,0,1.72-0.23,2.29-0.69c0.57-0.46,0.85-1.12,0.85-1.97c0-1.63-0.99-2.44-2.98-2.44h-1.88
						c-0.13,0-0.24-0.04-0.33-0.13s-0.13-0.2-0.13-0.33v-0.52c0-0.2,0.07-0.37,0.22-0.52l3.9-4.32h-5.92
						c-0.13,0-0.24-0.04-0.33-0.12c-0.09-0.08-0.13-0.19-0.13-0.32v-0.72c0-0.15,0.04-0.26,0.13-0.35s0.2-0.13,0.33-0.13h7.92
						c0.15,0,0.26,0.04,0.35,0.13c0.09,0.09,0.13,0.2,0.13,0.35v0.66c0,0.15-0.07,0.3-0.2,0.46l-3.9,4.38h0.32
						c1.36,0.04,2.44,0.39,3.23,1.06c0.79,0.67,1.19,1.64,1.19,2.92c0,0.88-0.22,1.64-0.65,2.27c-0.43,0.63-1.04,1.12-1.81,1.46
						c-0.77,0.34-1.65,0.51-2.62,0.51C420.58,252.58,419.68,252.41,418.92,252.07z"/>
					<path class="st2" d="M431.29,252.07c-0.79-0.34-1.41-0.83-1.85-1.47c-0.44-0.64-0.66-1.39-0.66-2.24c0-0.79,0.2-1.48,0.59-2.07
						s0.92-1.05,1.59-1.37c-0.53-0.31-0.95-0.71-1.24-1.21c-0.29-0.5-0.44-1.09-0.44-1.77c0-1.16,0.43-2.08,1.3-2.75
						c0.87-0.67,2.01-1.01,3.42-1.01s2.55,0.33,3.41,1c0.86,0.67,1.29,1.59,1.29,2.76c0,0.67-0.15,1.25-0.44,1.75
						c-0.29,0.5-0.7,0.91-1.22,1.23c0.67,0.32,1.2,0.78,1.59,1.37s0.59,1.29,0.59,2.09c0,0.85-0.22,1.6-0.66,2.23
						c-0.44,0.63-1.06,1.12-1.85,1.46c-0.79,0.34-1.7,0.51-2.71,0.51S432.08,252.41,431.29,252.07z M436.37,250.3
						c0.63-0.48,0.95-1.12,0.95-1.92s-0.32-1.44-0.95-1.92c-0.63-0.48-1.42-0.72-2.37-0.72c-0.96,0-1.76,0.24-2.39,0.72
						c-0.63,0.48-0.95,1.12-0.95,1.92s0.32,1.44,0.95,1.92c0.63,0.48,1.43,0.72,2.39,0.72C434.94,251.02,435.73,250.78,436.37,250.3
						z M436.06,243.58c0.56-0.4,0.84-0.93,0.84-1.6c0-0.68-0.28-1.22-0.83-1.63c-0.55-0.41-1.24-0.61-2.07-0.61
						c-0.84,0-1.53,0.2-2.08,0.61c-0.55,0.41-0.82,0.95-0.82,1.63c0,0.68,0.27,1.22,0.82,1.63c0.55,0.41,1.24,0.61,2.08,0.61
						C434.81,244.19,435.5,243.98,436.06,243.58z"/>
					<path class="st2" d="M447.58,251.37c-0.8-0.81-1.22-1.94-1.26-3.39l-0.02-0.8l0.02-0.8c0.04-1.45,0.46-2.58,1.26-3.39
						c0.8-0.81,1.91-1.21,3.34-1.21c0.96,0,1.77,0.17,2.43,0.51s1.15,0.76,1.48,1.27c0.33,0.51,0.5,1.01,0.53,1.52
						c0.01,0.12-0.03,0.23-0.13,0.32c-0.1,0.09-0.21,0.14-0.33,0.14h-0.88c-0.13,0-0.23-0.03-0.3-0.09
						c-0.07-0.06-0.13-0.17-0.2-0.33c-0.24-0.65-0.57-1.12-0.99-1.39c-0.42-0.27-0.95-0.41-1.59-0.41c-0.84,0-1.51,0.26-2,0.78
						c-0.49,0.52-0.76,1.31-0.8,2.38l-0.02,0.7l0.02,0.7c0.04,1.07,0.31,1.86,0.8,2.38c0.49,0.52,1.16,0.78,2,0.78
						c0.65,0,1.19-0.14,1.6-0.41c0.41-0.27,0.74-0.74,0.98-1.39c0.07-0.16,0.13-0.27,0.2-0.33c0.07-0.06,0.17-0.09,0.3-0.09h0.88
						c0.12,0,0.23,0.05,0.33,0.14c0.1,0.09,0.14,0.2,0.13,0.32c-0.03,0.49-0.2,0.99-0.53,1.5c-0.33,0.51-0.82,0.93-1.48,1.28
						s-1.47,0.52-2.43,0.52C449.49,252.58,448.38,252.18,447.58,251.37z"/>
					<path class="st2" d="M457.89,252.25c-0.09-0.09-0.13-0.2-0.13-0.33v-9.48c0-0.13,0.04-0.24,0.13-0.33
						c0.09-0.09,0.2-0.13,0.33-0.13h0.84c0.13,0,0.24,0.04,0.32,0.13c0.08,0.09,0.12,0.2,0.12,0.33v0.68
						c0.72-0.89,1.69-1.34,2.92-1.34c1.47,0,2.51,0.61,3.12,1.84c0.32-0.56,0.78-1.01,1.37-1.34c0.59-0.33,1.26-0.5,1.99-0.5
						c1.09,0,1.99,0.37,2.68,1.12c0.69,0.75,1.04,1.83,1.04,3.24v5.78c0,0.13-0.04,0.24-0.13,0.33c-0.09,0.09-0.2,0.13-0.33,0.13
						h-0.86c-0.13,0-0.24-0.04-0.33-0.13s-0.13-0.2-0.13-0.33v-5.6c0-1.07-0.22-1.83-0.66-2.29c-0.44-0.46-1.02-0.69-1.74-0.69
						c-0.64,0-1.19,0.24-1.65,0.71c-0.46,0.47-0.69,1.23-0.69,2.27v5.6c0,0.13-0.04,0.24-0.13,0.33s-0.2,0.13-0.33,0.13h-0.88
						c-0.13,0-0.24-0.04-0.33-0.13s-0.13-0.2-0.13-0.33v-5.6c0-1.05-0.23-1.81-0.69-2.28s-1.03-0.7-1.71-0.7
						c-0.64,0-1.19,0.23-1.65,0.7s-0.69,1.22-0.69,2.26v5.62c0,0.13-0.04,0.24-0.13,0.33s-0.2,0.13-0.33,0.13h-0.88
						C458.08,252.38,457.97,252.34,457.89,252.25z"/>
				</g>
			</g>
		</g>
		<g>
			<g>
				<line class="st4" x1="349.02" y1="41.96" x2="350.52" y2="41.96"/>
				<line class="st7" x1="356.32" y1="41.96" x2="423.1" y2="41.96"/>
				<line class="st4" x1="426" y1="41.96" x2="427.5" y2="41.96"/>
			</g>
		</g>
	</g>
</g>
<g id="N-TEXT">
	<g id="MTEXT_53_">
		<g>
			<g>
				<path class="st2" d="M711.04,235.48v-17.45h6.89c1.32,0,2.45,0.25,3.38,0.75s1.64,1.2,2.13,2.09s0.74,1.91,0.74,3.07
					c0,1.16-0.25,2.18-0.75,3.07s-1.22,1.58-2.17,2.07c-0.95,0.49-2.09,0.74-3.43,0.74h-4.39v-2.96h3.79c0.71,0,1.3-0.12,1.76-0.37
					c0.46-0.25,0.81-0.59,1.04-1.03c0.23-0.44,0.35-0.95,0.35-1.52c0-0.58-0.12-1.09-0.35-1.52c-0.23-0.43-0.58-0.77-1.04-1.01
					s-1.06-0.36-1.77-0.36h-2.49v14.44H711.04z"/>
				<path class="st2" d="M730.15,218.02v17.45h-3.63v-17.45H730.15z"/>
				<path class="st2" d="M736.78,235.72c-0.83,0-1.58-0.15-2.23-0.44s-1.17-0.73-1.55-1.3s-0.57-1.3-0.57-2.16
					c0-0.73,0.13-1.34,0.4-1.83c0.27-0.49,0.63-0.89,1.09-1.19s0.98-0.53,1.57-0.68s1.21-0.26,1.85-0.32
					c0.76-0.08,1.38-0.15,1.84-0.23c0.47-0.07,0.8-0.18,1.01-0.32c0.21-0.14,0.32-0.35,0.32-0.63v-0.05c0-0.54-0.17-0.96-0.51-1.25
					c-0.34-0.3-0.82-0.44-1.44-0.44c-0.65,0-1.17,0.14-1.56,0.43c-0.39,0.29-0.64,0.65-0.77,1.08l-3.36-0.27
					c0.17-0.8,0.51-1.48,1.01-2.07c0.5-0.58,1.15-1.03,1.94-1.35c0.79-0.31,1.71-0.47,2.76-0.47c0.73,0,1.42,0.08,2.09,0.26
					c0.67,0.17,1.26,0.44,1.78,0.79s0.93,0.82,1.23,1.38s0.45,1.23,0.45,2.01v8.83h-3.44v-1.82h-0.1c-0.21,0.41-0.49,0.77-0.84,1.08
					c-0.35,0.31-0.78,0.55-1.27,0.72C738,235.64,737.42,235.72,736.78,235.72z M737.82,233.22c0.53,0,1.01-0.11,1.42-0.32
					s0.73-0.5,0.96-0.87c0.23-0.36,0.35-0.78,0.35-1.24v-1.39c-0.11,0.07-0.27,0.14-0.46,0.2c-0.2,0.06-0.42,0.11-0.66,0.16
					s-0.49,0.09-0.73,0.13s-0.47,0.07-0.66,0.1c-0.43,0.06-0.8,0.16-1.12,0.3c-0.32,0.14-0.57,0.32-0.74,0.55
					c-0.18,0.23-0.26,0.52-0.26,0.86c0,0.49,0.18,0.87,0.54,1.13C736.8,233.09,737.26,233.22,737.82,233.22z"/>
				<path class="st2" d="M750.6,227.91v7.57h-3.63v-13.09h3.46v2.31h0.15c0.29-0.76,0.78-1.36,1.46-1.81
					c0.68-0.45,1.51-0.67,2.48-0.67c0.91,0,1.7,0.2,2.38,0.6c0.68,0.4,1.2,0.96,1.58,1.7s0.56,1.61,0.56,2.63v8.34h-3.63v-7.69
					c0.01-0.8-0.2-1.43-0.61-1.88c-0.42-0.45-0.99-0.68-1.71-0.68c-0.49,0-0.92,0.1-1.29,0.31c-0.37,0.21-0.66,0.52-0.87,0.92
					C750.71,226.86,750.61,227.35,750.6,227.91z"/>
			</g>
		</g>
	</g>
</g>
<g id="_x32_D_x24_AG-DIAGRAM">
	<g id="POLYLINE_984_">
		<g>
			<g>
				<line class="st15" x1="200.96" y1="688.71" x2="202.96" y2="688.71"/>
				<line class="st27" x1="209.93" y1="688.71" x2="414.52" y2="688.71"/>
				<line class="st15" x1="418" y1="688.71" x2="420" y2="688.71"/>
			</g>
		</g>
	</g>
</g>
<g id="_x32_D_x24_AG-DETAILS-DIAGRAM">
</g>
<g id="_x32_D_x24_AG-DETAILS">
</g>
<g id="_x32_D_x24_AG-SPORTS">
	<g id="POLYLINE_765_">
		<path class="st73" d="M790.92,378.06c0.03-19.41-9.9-37.76-26.16-48.35c-29.72-19.31-69.43-7.77-84.17,24.46
			c-6.88,15.06-6.88,32.72,0,47.77c14.74,32.23,54.45,43.77,84.17,24.46C781.02,415.82,790.95,397.47,790.92,378.06z"/>
	</g>
	<g id="POLYLINE_764_">
		<line class="st73" x1="272.17" y1="258.71" x2="348.8" y2="258.71"/>
	</g>
	<g id="POLYLINE_763_">
		<line class="st73" x1="355.21" y1="296.35" x2="265.76" y2="296.35"/>
	</g>
	<g id="POLYLINE_762_">
		<line class="st73" x1="264.47" y1="185.75" x2="356.49" y2="185.75"/>
	</g>
	<g id="POLYLINE_761_">
		<line class="st73" x1="350.44" y1="223.39" x2="270.53" y2="223.39"/>
	</g>
	<g id="POLYLINE_760_">
		<path class="st73" d="M350.97,688.71c1.82,0,3.63-0.73,4.92-2.02c0.28-0.29,0.55-0.59,0.78-0.92c0.14-0.19,0.27-0.41,0.39-0.61
			c0,0,0.06-0.11,0.06-0.11s0.06-0.11,0.06-0.11l2.43-4.74c6.83-13.48,13.34-27.7,19.02-41.7c13.16-32.48,23.16-66.48,28.82-101.08
			c4.96-30.29,6.39-61.52,1.56-91.92c-3.23-20.78-9.68-41.13-17.42-60.65c-8.66-22.11-22.29-49.65-30.73-71.86
			c-5.13-13.54-9.27-27.67-11.06-42.07c-2.93-24.19,0.29-48.87,4.41-72.75c2.27-13.05,8.07-40.81,10.18-53.84
			c1.53-9.46,2.75-19.24,2.87-28.83c0.13-9.24-0.74-18.6-2.67-27.64c-1.65-7.73-3.99-15.49-8.05-22.33
			c-6.4-10.85-16.2-17.38-28.41-20.25c-6.05-1.43-12.32-1.93-18.52-1.88c-7.43,0.07-14.95,0.98-22,3.41
			c-8.98,3.08-16.48,8.61-21.75,16.54c-5.95,8.9-8.66,19.54-10.46,29.97c-1.3,7.82-1.81,15.86-1.61,23.78
			c0.22,9.04,1.4,18.29,2.83,27.22c6.39,37.83,17.53,78.28,15.46,116.85c-0.6,11.21-2.66,22.45-5.73,33.23
			c-5.93,21.4-18.64,47.81-27.62,68.31c-10.77,24.48-20.77,50-25.63,76.38c-8.11,43.17-3.23,87.79,6.92,130.2
			c8.43,34.98,21.05,69.09,36.72,101.47c2.06,4.17,4.93,10.02,7.1,14.15c0,0,0.06,0.11,0.06,0.11s0.06,0.11,0.06,0.11
			s0.06,0.11,0.06,0.11s0.06,0.1,0.06,0.1s0.06,0.1,0.06,0.1s0.07,0.1,0.07,0.1s0.07,0.1,0.07,0.1c0.43,0.63,0.97,1.2,1.59,1.65
			c0.71,0.53,1.53,0.93,2.39,1.15c0.39,0.1,0.79,0.18,1.19,0.21c0,0,0.12,0.01,0.12,0.01s0.12,0.01,0.12,0.01s0.12,0.01,0.12,0.01
			s0.12,0,0.12,0s0.12,0,0.12,0S350.97,688.71,350.97,688.71z"/>
	</g>
	<g id="POLYLINE_734_">
		<path class="st73" d="M835.34,378.06c0.04-34.39-17.48-66.76-46.29-85.54c-25.07-16.43-56.55-20.98-85.25-12.33
			c-28.12,8.39-51.56,28.86-63.66,55.6c-12.18,26.7-12.18,57.82,0,84.52c12.36,27.31,36.5,48.03,65.36,56.1
			c28.24,7.99,59,3.27,83.54-12.82C817.86,444.82,835.38,412.45,835.34,378.06z"/>
	</g>
</g>
<g id="_x32_D_x24_AG-OUTLINE">
	<g id="POLYLINE_498_">
		<path class="st77" d="M350.97,688.71c1.96,0.01,3.92-0.87,5.21-2.33c0.31-0.35,0.59-0.73,0.83-1.14
			c2.25-4.3,5.14-10.08,7.26-14.45c10.57-21.84,19.82-44.66,27.24-67.76c9.92-31.09,17.03-63.36,19.6-95.92
			c1.91-24.77,0.8-50-4.48-74.31c-3.94-18.29-10.24-36.3-17.33-53.59c-9.2-22.63-23.57-51.43-31.44-74.53
			c-4.45-13.04-7.71-26.66-8.74-40.42c-1.64-22.27,1.37-44.81,5.19-66.72c3.76-20.93,11.57-54.8,12.7-75.66
			c0.68-11.35-0.06-22.88-2.44-34.01c-1.83-8.57-4.51-17.17-9.43-24.5c-10.2-15.3-27.12-19.97-44.66-19.95
			c-17.54-0.02-34.46,4.65-44.66,19.95c-4.92,7.33-7.6,15.93-9.43,24.5c-2.38,11.13-3.12,22.66-2.44,34.01
			c1.1,20.74,9,54.95,12.7,75.66c4.13,23.79,7.39,48.31,4.64,72.43c-1.49,12.77-4.86,25.38-9.15,37.49
			c-7.72,21.85-21.74,50.23-30.48,71.75c-7.09,17.3-13.4,35.3-17.33,53.59c-5.28,24.31-6.39,49.54-4.48,74.31
			c1.39,18.11,4.33,36.35,8.25,54.08c5.83,26.33,14.11,52.33,24.24,77.31c5.68,14,12.19,28.23,19.02,41.7c0,0,2.43,4.74,2.43,4.74
			s0.05,0.1,0.05,0.1s0.06,0.1,0.06,0.1s0.06,0.1,0.06,0.1c0.23,0.4,0.52,0.79,0.83,1.14c0.63,0.72,1.49,1.33,2.34,1.71
			c0.55,0.24,1.13,0.43,1.72,0.52c0.26,0.04,0.54,0.08,0.81,0.09C269.99,688.89,350.61,688.59,350.97,688.71z"/>
	</g>
	<g id="POLYLINE_491_">
		<path class="st77" d="M835.34,378.06c0.04-34.85-17.93-67.56-47.36-86.23c-24.89-15.87-55.85-20.16-84.12-11.65
			c-28.57,8.51-52.26,29.44-64.22,56.75c-11.33,25.66-11.52,55.29-0.51,81.09c11.8,27.87,35.72,49.28,64.73,57.92
			c28.27,8.51,59.22,4.22,84.12-11.65C817.41,445.62,835.38,412.92,835.34,378.06z"/>
	</g>
</g>
</svg>
